<svg width="1200" height="1500" viewBox="0 0 1200 1500" xmlns="http://www.w3.org/2000/svg">
  <defs>
    <linearGradient id="orange3" x1="0" y1="0" x2="1" y2="1">
      <stop offset="0%" stop-color="#FF6B00"/>
      <stop offset="100%" stop-color="#FF8C42"/>
    </linearGradient>
  </defs>

  <rect width="1200" height="1500" fill="url(#orange3)"/>

  <!-- Badge -->
  <rect x="370" y="90" width="460" height="70" rx="35" fill="#FFFFFF"/>
  <text x="600" y="138" font-family="Nunito" font-size="30" font-weight="900" fill="#FF6B00" text-anchor="middle">OFERTĂ FONDATORI</text>

  <text x="600" y="290" font-family="Nunito" font-size="58" font-weight="900" fill="#FFFFFF" text-anchor="middle">Primele 3 luni</text>
  <text x="600" y="365" font-family="Nunito" font-size="58" font-weight="900" fill="#FFFFFF" text-anchor="middle">100% GRATUITE</text>

  <text x="600" y="445" font-family="Nunito" font-size="30" font-weight="700" fill="#FFFFFF" text-anchor="middle" opacity="0.95">Doar pentru primele 10 saloane înscrise</text>

  <!-- White card -->
  <rect x="90" y="510" width="1020" height="640" rx="32" fill="#FFFFFF"/>

  <text x="600" y="600" font-family="Nunito" font-size="34" font-weight="900" fill="#1A1A1A" text-anchor="middle">Ce primești ca partener fondator</text>

  <!-- Check rows -->
  <g>
    <circle cx="170" cy="678" r="22" fill="#FF6B00"/>
    <g transform="translate(159,669)" stroke="#FFFFFF" stroke-width="4" fill="none" stroke-linecap="round" stroke-linejoin="round"><polyline points="2,11 8,17 20,3"/></g>
    <text x="215" y="688" font-family="Nunito" font-size="29" font-weight="700" fill="#374151">3 luni gratuite, fără card la înscriere</text>
  </g>
  <g>
    <circle cx="170" cy="753" r="22" fill="#FF6B00"/>
    <g transform="translate(159,744)" stroke="#FFFFFF" stroke-width="4" fill="none" stroke-linecap="round" stroke-linejoin="round"><polyline points="2,11 8,17 20,3"/></g>
    <text x="215" y="763" font-family="Nunito" font-size="29" font-weight="700" fill="#374151">0% comision pe programări — mereu</text>
  </g>
  <g>
    <circle cx="170" cy="828" r="22" fill="#FF6B00"/>
    <g transform="translate(159,819)" stroke="#FFFFFF" stroke-width="4" fill="none" stroke-linecap="round" stroke-linejoin="round"><polyline points="2,11 8,17 20,3"/></g>
    <text x="215" y="838" font-family="Nunito" font-size="29" font-weight="700" fill="#374151">Configurare gratuită — îți punem noi totul</text>
  </g>
  <g>
    <circle cx="170" cy="903" r="22" fill="#FF6B00"/>
    <g transform="translate(159,894)" stroke="#FFFFFF" stroke-width="4" fill="none" stroke-linecap="round" stroke-linejoin="round"><polyline points="2,11 8,17 20,3"/></g>
    <text x="215" y="913" font-family="Nunito" font-size="29" font-weight="700" fill="#374151">Suport dedicat, direct cu echipa</text>
  </g>
  <g>
    <circle cx="170" cy="978" r="22" fill="#FF6B00"/>
    <g transform="translate(159,969)" stroke="#FFFFFF" stroke-width="4" fill="none" stroke-linecap="round" stroke-linejoin="round"><polyline points="2,11 8,17 20,3"/></g>
    <text x="215" y="988" font-family="Nunito" font-size="29" font-weight="700" fill="#374151">Acces la funcțiile AI pe măsură ce apar</text>
  </g>

  <!-- Price after -->
  <rect x="150" y="1035" width="900" height="85" rx="18" fill="#FFF3EA"/>
  <text x="600" y="1073" font-family="Nunito" font-size="25" font-weight="700" fill="#6B7280" text-anchor="middle">După perioada gratuită, de la doar</text>
  <text x="600" y="1105" font-family="Nunito" font-size="25" font-weight="900" fill="#FF6B00" text-anchor="middle">69 RON / lună pe tot salonul — nu per angajat</text>

  <!-- CTA -->
  <text x="600" y="1250" font-family="Nunito" font-size="40" font-weight="900" fill="#FFFFFF" text-anchor="middle">Hai să-ți configurăm salonul azi.</text>

  <rect x="350" y="1300" width="500" height="90" rx="45" fill="#1A1A1A"/>
  <text x="600" y="1358" font-family="Nunito" font-size="32" font-weight="900" fill="#FFFFFF" text-anchor="middle">www.calyhub.ro</text>

  <text x="600" y="1445" font-family="Nunito" font-size="26" font-weight="700" fill="#FFFFFF" text-anchor="middle" opacity="0.9">CalyHub · Platforma saloanelor de grooming din România</text>
</svg>
